<?xml version="1.0" encoding="utf-8"?>
<!-- Uploaded to: SVG Repo, www.svgrepo.com, Generator: SVG Repo Mixer Tools -->
<svg width="800px" height="800px" viewBox="0 0 1024 1024" class="icon"  version="1.1" xmlns="http://www.w3.org/2000/svg"><path d="M690.333908 1015.533108H278.842968L145.559981 567.987322l686.241576-36.054848-141.467649 483.600634z m-395.756632-21.167229h379.881209l128.626198-439.713912L173.500723 587.743402l121.076553 406.622477z" fill="#744520" /><path d="M539.305726 450.045636l16.04476 13.805267-314.852659 365.927773-16.04476-13.805267zM724.584601 418.627118l16.017243 13.837018-459.942727 532.41297-16.016537-13.836312zM876.978069 475.08788l15.938924 13.928037-456.932747 522.90324-15.938924-13.928037z" fill="#744520" /><path d="M179.074761 380.233997S17.85103 520.50217 155.014676 626.26776c19.403294 13.053125 80.576587 30.339695 126.65059-31.398057 36.407635 18.203817 130.884035 81.634948 226.136567-3.175084 24.483429 21.731689 103.366637 83.751671 196.784676 4.162888 40.852753 11.500861 133.988562 87.914559 191.563426-19.897196 17.780473-56.0226 0-169.620065-101.532144-215.62351-2.116723-15.734307-56.516502-142.384896-192.621787-145.489423 0-23.001723-2.116723-180.062565-108.870117-195.726314-2.116723 29.281334-19.897196 188.458899-87.914559 198.901399-59.691587 4.092331-208.356095-10.513057-226.136567 162.211534z" fill="#F4C324" /><path d="M888.106387 589.366223c-60.114931 2.18728-111.762971-36.125405-157.060842-62.584441-82.693309 100.473782-139.209812 53.341418-208.285537 15.875422-81.634948 80.788259-148.664508 19.685523-182.179287-14.817061-191.563426 62.796114-207.297733-94.194171-207.297733-94.19417l-0.987804 0.917246c-33.867567 50.519121-60.679391 127.426721 22.648935 191.704541 19.403294 13.053125 80.576587 30.339695 126.650589-31.398057 36.407635 18.203817 130.884035 81.634948 226.136567-3.175084 24.483429 21.731689 103.366637 83.751671 196.784676 4.162888 39.018259 11.006959 125.662785 80.999931 183.590436-6.491284zM212.236753 284.346448S247.656584 442.536209 482.401158 419.746159c-86.362296 22.79005-196.502446 33.51478-303.326397-39.512162 4.797905-33.373665 11.006959-64.630607 33.161992-95.887549z" fill="#F5B01C" /><path d="M319.201819 344.955281s2.046166 0.635017 5.644595 1.693379c1.763936 0.493902 3.880659 1.128919 6.279611 1.834493 2.328395 0.635017 5.009578 1.411149 7.902432 2.257838 1.411149 0.423345 2.892855 0.846689 4.445118 1.270034 1.552263 0.423345 3.104527 0.846689 4.727348 1.270033 3.245642 0.917247 6.632399 1.763936 10.089713 2.681183 3.527872 0.846689 7.126301 1.834493 10.72473 2.681182 3.668986 0.917247 7.337973 1.763936 11.077516 2.610625 1.834493 0.423345 3.739544 0.776132 5.574037 1.270034 1.834493 0.352787 3.739544 0.776132 5.574037 1.199476 0.917247 0.211672 1.834493 0.352787 2.75174 0.56446 0.917247 0.211672 1.834493 0.423345 2.75174 0.564459 1.834493 0.352787 3.598429 0.705574 5.432922 1.128919l5.291808 1.058361c1.693378 0.352787 3.457314 0.635017 5.080135 0.987804 1.693378 0.352787 3.316199 0.635017 4.868462 0.987805 1.552263 0.28223 3.104527 0.705574 4.586233 0.987804 2.963412 0.564459 5.715152 1.270034 8.184662 1.763935 2.46951 0.564459 4.65679 1.128919 6.420727 1.552264 1.834493 0.423345 3.245642 0.846689 4.233446 1.128919 0.987804 0.28223 1.481706 0.493902 1.481706 0.493902s-0.493902 0.28223-1.411149 0.776132c-0.917247 0.493902-2.257838 1.128919-4.021774 1.90505s-3.880659 1.552263-6.350168 2.398953c-2.46951 0.917247-5.291807 1.622821-8.466892 2.328395-1.552263 0.423345-3.175084 0.635017-4.868463 0.987804-1.693378 0.28223-3.457314 0.564459-5.291807 0.776132-0.917247 0.141115-1.834493 0.211672-2.75174 0.28223-0.917247 0.070557-1.905051 0.211672-2.822297 0.211672-0.987804 0.070557-1.905051 0.070557-2.892855 0.141115-0.987804 0-1.975608 0.070557-2.963412 0.070557-1.975608 0-4.021774-0.070557-6.138497-0.141115-2.046166-0.141115-4.162888-0.28223-6.279611-0.493902l-6.350169-0.846689c-2.116723-0.352787-4.233446-0.776132-6.350169-1.270034-4.162888-0.987804-8.325777-2.116723-12.34755-3.598429-4.021774-1.340591-7.831875-3.03397-11.500861-4.797905-3.598429-1.834493-7.055743-3.739544-10.089713-5.785709-0.776132-0.493902-1.552263-0.987804-2.257838-1.552264-0.705574-0.493902-1.481706-1.058361-2.18728-1.552263-1.411149-1.058361-2.75174-2.116723-3.951216-3.175085-2.46951-2.046166-4.65679-4.162888-6.420727-6.067939-1.834493-1.905051-3.245642-3.739544-4.37456-5.291807-1.128919-1.552263-1.975608-2.822297-2.46951-3.739544-0.352787-1.058361-0.564459-1.552263-0.56446-1.552264zM621.893199 502.792255c-15.38152 0-27.870185-12.488665-27.870185-27.870185s12.488665-27.870185 27.870185-27.870185 27.870185 12.488665 27.870186 27.870185-12.559223 27.870185-27.870186 27.870185z m0-34.573141c-3.668986 0-6.702956 3.03397-6.702956 6.702956s3.03397 6.702956 6.702956 6.702956 6.702956-3.03397 6.702956-6.702956c-0.070557-3.668986-3.03397-6.702956-6.702956-6.702956z" fill="#FFFFFF" /><path d="M721.802522 375.083305c-53.694205 0-97.298698-43.67505-97.298698-97.298698 0-53.694205 43.67505-97.298698 97.298698-97.298698s97.369255 43.604493 97.369255 97.298698c0 53.623648-43.67505 97.298698-97.369255 97.298698z m0-173.430166c-41.981672 0-76.131468 34.149797-76.131468 76.131468 0 41.981672 34.149797 76.131468 76.131468 76.131468s76.202026-34.149797 76.202026-76.131468c0-41.981672-34.220354-76.131468-76.202026-76.131468z" fill="#744520" /><path d="M778.742369 19.050506s0.141115 0.211672 0.493902 0.493902c0.28223 0.352787 0.776132 0.846689 1.340591 1.552264 1.128919 1.411149 2.75174 3.457314 4.656791 6.138496 1.905051 2.681182 4.092331 6.067939 6.420726 10.089713 1.199476 1.975608 2.328395 4.162888 3.598429 6.420726 1.199476 2.328395 2.398953 4.727348 3.598429 7.337973 2.398953 5.150692 4.797905 10.865844 6.914628 17.074899 2.18728 6.209054 4.092331 12.841452 5.715152 19.897195s2.822297 14.393716 3.598429 22.013919c0.705574 7.620203 0.987804 15.38152 0.705574 23.142837-0.352787 7.761317-1.270034 15.593192-2.681182 23.142838-1.481706 7.549645-3.527872 14.887618-6.067939 21.802246-2.540068 6.914628-5.574037 13.335355-8.819679 19.121064-3.245642 5.856267-6.844071 11.077517-10.371942 15.66375-1.763936 2.328395-3.598429 4.374561-5.291808 6.350168-0.917247 0.987804-1.763936 1.905051-2.610625 2.822298-0.423345 0.423345-0.846689 0.917247-1.270034 1.340591l-1.270033 1.270034c-1.693378 1.622821-3.175084 3.175084-4.727348 4.445118-1.481706 1.340591-2.892855 2.540068-4.233446 3.598429-1.270034 1.058361-2.46951 1.975608-3.457314 2.75174-1.058361 0.776132-1.975608 1.411149-2.681183 1.90505-1.481706 0.987804-2.257838 1.481706-2.257837 1.481706s0.493902-0.846689 1.340591-2.328395c0.423345-0.776132 0.987804-1.693378 1.693378-2.75174 0.635017-1.128919 1.340591-2.398953 2.187281-3.739544 0.846689-1.411149 1.693378-2.963412 2.610624-4.65679 0.987804-1.693378 1.905051-3.527872 2.963413-5.50348s2.116723-4.092331 3.175084-6.279611c1.058361-2.257838 2.257838-4.515676 3.245642-6.985186 2.18728-4.868463 4.374561-10.230828 6.350169-15.875422 1.975608-5.715152 3.810101-11.783091 5.362364-18.062702 1.552263-6.350169 2.822297-12.91201 3.739544-19.685524 0.917247-6.773513 1.552263-13.688142 1.834494-20.60277 0.28223-6.914628 0.28223-13.899814 0-20.814442s-0.846689-13.688142-1.552264-20.32054c-0.705574-6.632399-1.622821-12.982567-2.610625-19.121064-0.987804-6.067939-2.046166-11.853648-3.104527-17.216013-1.058361-5.362365-2.18728-10.230828-3.175084-14.605388-0.987804-4.374561-1.905051-8.184662-2.681183-11.359747-1.693378-6.279611-2.681182-9.948598-2.681182-9.948598z" fill="#744520" /></svg>